<svg width="527" height="449" viewBox="0 0 527 449" fill="none" xmlns="http://www.w3.org/2000/svg">
<g filter="url(#filter0_i_1_9)">
<path d="M236.25 364.25C235.167 364.25 234.083 364.292 233 364.375C231.833 364.375 230.583 364.375 229.25 364.375C228.667 364.375 228.125 364.375 227.625 364.375C227.042 364.375 226.458 364.417 225.875 364.5C225.292 364.5 224.708 364.5 224.125 364.5C223.458 364.5 222.833 364.5 222.25 364.5C221.583 364.5 220.958 364.5 220.375 364.5C219.708 364.5 219.083 364.5 218.5 364.5C210.333 364.583 201.583 364.667 192.25 364.75C182.917 364.75 174.583 364.75 167.25 364.75C165.833 364.75 164.5 364.75 163.25 364.75C161.917 364.75 160.583 364.75 159.25 364.75C158.25 364.75 157.292 364.75 156.375 364.75C155.375 364.75 154.417 364.75 153.5 364.75C152.583 364.75 151.667 364.75 150.75 364.75C143.833 364.75 137.542 364.708 131.875 364.625C126.208 364.542 121.75 364.5 118.5 364.5C111.333 364.417 105.792 363.458 101.875 361.625C97.875 359.792 95.125 356.042 93.625 350.375C92.0417 344.708 91.25 335.917 91.25 324C91.25 308.5 94.0833 294.958 99.75 283.375C105.417 271.792 114.292 262.792 126.375 256.375C138.375 249.958 153.917 246.75 173 246.75C194.583 246.75 211.75 250.042 224.5 256.625C237.167 263.208 246.25 272.25 251.75 283.75C257.25 295.167 260 308.25 260 323C260 334.25 259.333 342.833 258 348.75C256.583 354.667 254.167 358.708 250.75 360.875C247.333 363.042 242.5 364.167 236.25 364.25ZM226 343.75C231.75 344 235.958 342.75 238.625 340C241.208 337.25 242.5 331.5 242.5 322.75C242.5 315.583 241.875 309.208 240.625 303.625C239.375 298.042 237.292 293.375 234.375 289.625C231.375 285.792 227.417 282.917 222.5 281C217.5 279 211.333 278 204 278C194.333 278 185.125 279.333 176.375 282C167.542 284.667 159.708 288.333 152.875 293C146.042 297.583 140.667 302.917 136.75 309C132.75 315.083 130.75 321.583 130.75 328.5C130.75 332.083 131.625 334.667 133.375 336.25C135.042 337.833 137.833 338.75 141.75 339C155.25 340 169.167 340.917 183.5 341.75C197.833 342.583 212 343.25 226 343.75ZM151.5 277.25C151.5 273.75 150.542 270.917 148.625 268.75C146.625 266.583 143.75 265.5 140 265.5C137 265.5 134.708 266.5 133.125 268.5C131.542 270.5 130.75 273.333 130.75 277C130.75 279.75 131.625 282.083 133.375 284C135.042 285.833 137.5 286.75 140.75 286.75C144.083 286.75 146.708 285.792 148.625 283.875C150.542 281.958 151.5 279.75 151.5 277.25ZM164.5 267.75C164.583 267.75 164.625 267.75 164.625 267.75C164.542 267.75 164.5 267.75 164.5 267.75ZM128 299.75C128 296.5 126.958 294.042 124.875 292.375C122.708 290.625 119.583 289.75 115.5 289.75C113.083 289.75 111 290.625 109.25 292.375C107.417 294.042 106.5 296.833 106.5 300.75C106.5 303.333 107.417 305.75 109.25 308C111.083 310.167 113.333 311.25 116 311.25C119.833 311.25 122.792 310.167 124.875 308C126.958 305.833 128 303.083 128 299.75ZM142.5 353.25C142.333 352.5 142.25 351.708 142.25 350.875C142.25 349.958 142.333 349 142.5 348C142.583 346.583 143.292 345.542 144.625 344.875C145.875 344.125 148.333 343.75 152 343.75C155.5 343.75 157.792 344.208 158.875 345.125C159.875 345.958 160.5 347.333 160.75 349.25C160.833 349.917 160.917 350.583 161 351.25C161 351.833 161 352.458 161 353.125C160.917 353.708 160.833 354.333 160.75 355C160.5 356.583 159.833 357.792 158.75 358.625C157.667 359.375 155.333 359.75 151.75 359.75C148.083 359.75 145.708 359.25 144.625 358.25C143.542 357.167 142.833 355.5 142.5 353.25ZM210.125 374.5C206.792 368.5 203.792 362.958 201.125 357.875C198.458 352.792 195.708 347.125 192.875 340.875C190.292 335.292 189.083 330.5 189.25 326.5C189.333 322.5 191.625 320.5 196.125 320.5C198.292 320.5 200.375 321.542 202.375 323.625C204.375 325.625 206.375 328.5 208.375 332.25C211.708 338.333 214.875 344.292 217.875 350.125C220.792 355.875 223.458 361.458 225.875 366.875C228.208 372.125 229.333 376.583 229.25 380.25C229.083 383.917 226.792 385.75 222.375 385.75C220.375 385.75 218.375 384.875 216.375 383.125C214.375 381.292 212.292 378.417 210.125 374.5ZM210.5 290.125C215 284.208 219.833 278.125 225 271.875C230.167 265.625 235.083 259.75 239.75 254.25C241.917 251.667 244.125 249.667 246.375 248.25C248.542 246.833 250.625 246.125 252.625 246.125C255.792 246.125 257.875 247.167 258.875 249.25C259.792 251.333 259.833 253.917 259 257C258.083 260 256.5 262.917 254.25 265.75C249.167 272.167 244 278.583 238.75 285C233.5 291.333 229 296.5 225.25 300.5C222.75 303.083 220.5 305.125 218.5 306.625C216.5 308.042 214.583 308.75 212.75 308.75C208.5 308.75 206.208 306.792 205.875 302.875C205.542 298.875 207.083 294.625 210.5 290.125Z" fill="url(#paint0_linear_1_9)"/>
</g>
<g filter="url(#filter1_i_1_9)">
<path d="M471.087 346.67C465.267 336.638 459.505 326.618 453.801 316.61C447.981 306.578 442.219 296.558 436.515 286.55C430.696 276.518 424.876 266.485 419.057 256.453C411.117 261.211 405.294 263.95 401.587 264.668C397.765 265.361 394.969 264.345 393.199 261.62C391.565 259.104 392.129 256.452 394.89 253.666C397.581 250.924 402.987 247.314 411.108 242.836C410.137 240.882 409.132 238.952 408.092 237.044C406.936 235.111 405.791 233.272 404.656 231.524C399.957 234.08 396.017 235.893 392.837 236.964C389.612 237.965 386.985 238.28 384.956 237.909C382.881 237.468 381.276 236.374 380.141 234.627C378.326 231.831 378.985 228.869 382.12 225.74C385.255 222.611 389.94 219.42 396.174 216.167C395.475 214.633 394.73 213.179 393.938 211.806C393.03 210.408 392.145 209.045 391.283 207.717C388.423 203.314 385.378 200.92 382.147 200.534C378.845 200.194 374.715 201.485 369.757 204.407C359.211 210.66 349.217 217.15 339.774 223.878C330.287 230.536 321.7 237.205 314.015 243.885C309.462 247.737 306.748 251.437 305.873 254.986C304.928 258.58 305.386 261.81 307.247 264.676C309.834 268.659 313.056 270.79 316.912 271.068C320.654 271.321 324.691 271.034 329.023 270.208C335.626 268.901 341.585 267.366 346.9 265.604C352.169 263.772 357.432 262.391 362.69 261.46C364.891 261.024 366.848 260.748 368.56 260.629C370.202 260.557 371.714 260.667 373.098 260.962C374.526 261.325 375.871 261.943 377.132 262.813C378.323 263.729 379.636 265.062 381.071 266.813C382.415 268.424 383.69 270.081 384.894 271.782C385.984 273.46 387.118 275.207 388.298 277.024C389.841 279.4 390.499 281.408 390.271 283.046C389.998 284.614 388.186 286.338 384.835 288.216C379.995 290.862 375.042 293.333 369.976 295.63C364.909 297.926 360.001 300.468 355.253 303.254C352.157 305.065 350.374 307.217 349.905 309.707C349.436 312.198 349.837 314.422 351.107 316.379C352.287 318.196 354.074 319.57 356.466 320.5C358.814 321.36 361.324 321.171 363.997 319.932C369.857 317.021 375.348 314.001 380.471 310.873C385.548 307.675 390.83 304.792 396.316 302.223C399.433 300.596 401.721 300.6 403.181 302.236C404.595 303.802 404.432 305.845 402.691 308.367C400.244 311.943 397.65 315.217 394.91 318.189C392.17 321.161 389.599 324.47 387.197 328.116C385.88 330.065 385.255 332.011 385.324 333.953C385.393 335.896 385.927 337.636 386.926 339.173C388.56 341.689 391.072 343.187 394.464 343.667C397.741 344.123 400.823 342.519 403.71 338.855C406.035 335.855 408.094 332.829 409.887 329.776C411.611 326.769 413.645 323.858 415.99 321.043C418.29 318.159 420.481 316.636 422.564 316.477C424.531 316.292 426.549 317.565 428.62 320.294C433.058 326.057 437.387 332.188 441.608 338.688C445.759 345.233 450.134 351.434 454.732 357.291C456.052 359.017 457.46 360.19 458.955 360.809C460.495 361.498 462.018 361.701 463.524 361.419C465.075 361.206 466.55 360.646 467.947 359.738C470.114 358.331 471.592 356.477 472.383 354.175C473.219 351.943 472.787 349.441 471.087 346.67ZM358.251 250.035C355.735 251.669 353.176 252.088 350.574 251.294C347.971 250.5 345.763 248.705 343.947 245.91C342.495 243.673 342.061 241.322 342.645 238.856C343.16 236.435 344.36 234.612 346.247 233.387C349.812 231.072 352.839 230.149 355.33 230.618C357.705 231.063 359.778 232.648 361.548 235.374C363.228 237.96 363.878 240.568 363.5 243.198C363.006 245.804 361.256 248.083 358.251 250.035Z" fill="url(#paint1_linear_1_9)"/>
</g>
<g filter="url(#filter2_i_1_9)">
<path d="M269.25 254.25C261.167 254.25 253.875 253.167 247.375 251C240.875 248.833 235.25 245.5 230.5 241C225.75 236.417 221.917 230.75 219 224C216.083 217.167 214.167 209.25 213.25 200.25C212.667 194.833 212 188.417 211.25 181C210.583 173.5 209.917 165.667 209.25 157.5C208.583 149.25 207.958 141.25 207.375 133.5C206.792 125.667 206.292 118.708 205.875 112.625C205.542 106.458 205.375 101.833 205.375 98.75C205.375 93.0833 206.583 89 209 86.5C211.417 84 214.917 82.75 219.5 82.75C224.25 82.75 227.625 84.25 229.625 87.25C231.708 90.1667 232.75 95 232.75 101.75C232.75 106 232.708 110.333 232.625 114.75C232.542 119.167 232.417 123.667 232.25 128.25C232.167 132.75 232.083 137.333 232 142C231.917 146.667 231.833 151.333 231.75 156C231.667 160.667 231.625 165.333 231.625 170C231.625 176.917 231.875 182.833 232.375 187.75C232.875 192.583 234.25 196.25 236.5 198.75C238.833 201.25 242.75 202.5 248.25 202.5C254.75 202.5 260.792 201.083 266.375 198.25C272.042 195.417 277.167 191.208 281.75 185.625C286.333 180.042 290.167 173.083 293.25 164.75C295.25 159.25 297.083 153.917 298.75 148.75C300.417 143.5 302 138.375 303.5 133.375C305 128.375 306.5 123.458 308 118.625C309.5 113.708 311.083 108.833 312.75 104C314 100.333 315.375 97.625 316.875 95.875C318.458 94.125 320.5 93.25 323 93.25C325.667 93.25 327.542 94.25 328.625 96.25C329.708 98.1667 330.292 100.958 330.375 104.625C330.292 108.542 330.125 113.542 329.875 119.625C329.625 125.625 329.333 132.167 329 139.25C328.667 146.333 328.25 153.5 327.75 160.75C327.25 168 326.708 174.917 326.125 181.5C325.625 188 325.167 193.667 324.75 198.5C323.417 212.333 320 223.333 314.5 231.5C309 239.583 302.292 245.417 294.375 249C286.458 252.5 278.083 254.25 269.25 254.25ZM258 190.25C254.167 190.25 251.125 189 248.875 186.5C246.625 183.917 245.5 180.292 245.5 175.625C245.5 172.625 246.375 170 248.125 167.75C249.875 165.417 252.542 164.25 256.125 164.25C261.125 164.25 264.917 165.25 267.5 167.25C270.167 169.167 271.5 172.083 271.5 176C271.5 180.667 270.25 184.208 267.75 186.625C265.25 189.042 262 190.25 258 190.25ZM214.25 117.75C218.167 117.5 221.125 117.875 223.125 118.875C225.125 119.792 226.125 122 226.125 125.5C226.125 127.583 225.375 129.208 223.875 130.375C222.375 131.458 219.792 132.25 216.125 132.75C214.292 132.917 212.5 133.208 210.75 133.625C209 133.958 207.25 134.25 205.5 134.5C200.167 135.25 195.875 135.458 192.625 135.125C189.375 134.792 187.75 132.5 187.75 128.25C187.75 125.75 188.917 123.875 191.25 122.625C193.583 121.375 197.167 120.333 202 119.5C204 119.083 206.042 118.708 208.125 118.375C210.208 118.042 212.25 117.833 214.25 117.75ZM248 137.5C251.417 137.167 254.292 137.042 256.625 137.125C259.042 137.125 260.875 137.625 262.125 138.625C263.375 139.542 264 141.083 264 143.25C264 144.833 263.5 146.208 262.5 147.375C261.583 148.542 260.042 149.542 257.875 150.375C255.792 151.208 252.917 151.917 249.25 152.5C246.167 153 242.75 153.542 239 154.125C235.25 154.708 231.167 155.25 226.75 155.75C223.333 156 220.708 155.75 218.875 155C217.125 154.167 216.25 152 216.25 148.5C216.25 146.583 216.792 145 217.875 143.75C218.958 142.417 220.5 141.583 222.5 141.25C226.75 140.333 231 139.583 235.25 139C239.5 138.333 243.75 137.833 248 137.5ZM327.75 164.25C335.75 165 341.292 166.125 344.375 167.625C347.458 169.042 349 171 349 173.5C349 178.25 346.75 180.792 342.25 181.125C337.833 181.375 332.208 181.333 325.375 181C323.125 180.833 320.792 180.625 318.375 180.375C316.042 180.125 313.667 179.833 311.25 179.5C309 179.083 307.292 178.083 306.125 176.5C304.958 174.833 304.375 173 304.375 171C304.375 168.833 305.083 166.917 306.5 165.25C307.917 163.583 309.917 162.833 312.5 163C314.917 163.083 317.417 163.25 320 163.5C322.583 163.75 325.167 164 327.75 164.25ZM290.125 228.25C292.708 228.25 294.875 227.292 296.625 225.375C298.375 223.458 299.25 221.083 299.25 218.25C299.25 214.5 298.375 211.667 296.625 209.75C294.875 207.75 292 206.75 288 206.75C284.917 206.75 282.458 207.583 280.625 209.25C278.792 210.917 277.875 213.333 277.875 216.5C277.875 220 278.833 222.833 280.75 225C282.667 227.167 285.792 228.25 290.125 228.25ZM306.75 201.75C308.917 201.75 310.708 200.958 312.125 199.375C313.625 197.708 314.375 195.5 314.375 192.75C314.375 190 313.583 187.875 312 186.375C310.5 184.792 308.75 184 306.75 184C303 184 300.333 184.833 298.75 186.5C297.25 188.167 296.5 190.5 296.5 193.5C296.5 195.75 297.292 197.708 298.875 199.375C300.542 200.958 303.167 201.75 306.75 201.75ZM260.25 236C263.167 236 265.417 235.208 267 233.625C268.667 231.958 269.5 229.833 269.5 227.25C269.5 224.083 268.792 221.792 267.375 220.375C265.958 218.958 263.417 218.25 259.75 218.25C257.167 218.25 255.167 219.042 253.75 220.625C252.417 222.125 251.75 224 251.75 226.25C251.75 229.25 252.583 231.625 254.25 233.375C255.917 235.125 257.917 236 260.25 236Z" fill="url(#paint2_linear_1_9)"/>
</g>
<defs>
<filter id="filter0_i_1_9" x="91.25" y="246.125" width="169" height="143.625" filterUnits="userSpaceOnUse" color-interpolation-filters="sRGB">
<feFlood flood-opacity="0" result="BackgroundImageFix"/>
<feBlend mode="normal" in="SourceGraphic" in2="BackgroundImageFix" result="shape"/>
<feColorMatrix in="SourceAlpha" type="matrix" values="0 0 0 0 0 0 0 0 0 0 0 0 0 0 0 0 0 0 127 0" result="hardAlpha"/>
<feOffset dy="4"/>
<feGaussianBlur stdDeviation="2"/>
<feComposite in2="hardAlpha" operator="arithmetic" k2="-1" k3="1"/>
<feColorMatrix type="matrix" values="0 0 0 0 0 0 0 0 0 0 0 0 0 0 0 0 0 0 0.25 0"/>
<feBlend mode="normal" in2="shape" result="effect1_innerShadow_1_9"/>
</filter>
<filter id="filter1_i_1_9" x="297.852" y="194.928" width="185.611" height="214.016" filterUnits="userSpaceOnUse" color-interpolation-filters="sRGB">
<feFlood flood-opacity="0" result="BackgroundImageFix"/>
<feBlend mode="normal" in="SourceGraphic" in2="BackgroundImageFix" result="shape"/>
<feColorMatrix in="SourceAlpha" type="matrix" values="0 0 0 0 0 0 0 0 0 0 0 0 0 0 0 0 0 0 127 0" result="hardAlpha"/>
<feOffset dy="4"/>
<feGaussianBlur stdDeviation="2"/>
<feComposite in2="hardAlpha" operator="arithmetic" k2="-1" k3="1"/>
<feColorMatrix type="matrix" values="0 0 0 0 0 0 0 0 0 0 0 0 0 0 0 0 0 0 0.25 0"/>
<feBlend mode="normal" in2="shape" result="effect1_innerShadow_1_9"/>
</filter>
<filter id="filter2_i_1_9" x="187.75" y="82.75" width="161.25" height="175.5" filterUnits="userSpaceOnUse" color-interpolation-filters="sRGB">
<feFlood flood-opacity="0" result="BackgroundImageFix"/>
<feBlend mode="normal" in="SourceGraphic" in2="BackgroundImageFix" result="shape"/>
<feColorMatrix in="SourceAlpha" type="matrix" values="0 0 0 0 0 0 0 0 0 0 0 0 0 0 0 0 0 0 127 0" result="hardAlpha"/>
<feOffset dy="4"/>
<feGaussianBlur stdDeviation="2"/>
<feComposite in2="hardAlpha" operator="arithmetic" k2="-1" k3="1"/>
<feColorMatrix type="matrix" values="0 0 0 0 0 0 0 0 0 0 0 0 0 0 0 0 0 0 0.25 0"/>
<feBlend mode="normal" in2="shape" result="effect1_innerShadow_1_9"/>
</filter>
<linearGradient id="paint0_linear_1_9" x1="188" y1="155" x2="188" y2="386" gradientUnits="userSpaceOnUse">
<stop stop-color="#004D00"/>
<stop offset="0.5" stop-color="#008000"/>
<stop offset="1" stop-color="#00CC00"/>
</linearGradient>
<linearGradient id="paint1_linear_1_9" x1="302.224" y1="146.317" x2="478.142" y2="417.207" gradientUnits="userSpaceOnUse">
<stop stop-color="#004D00"/>
<stop offset="0.5" stop-color="#008000"/>
<stop offset="1" stop-color="#00CC00"/>
</linearGradient>
<linearGradient id="paint2_linear_1_9" x1="269" y1="0" x2="269" y2="323" gradientUnits="userSpaceOnUse">
<stop stop-color="#004D00"/>
<stop offset="0.5" stop-color="#008000"/>
<stop offset="1" stop-color="#00CC00"/>
</linearGradient>
</defs>
</svg>
